<?xml version="1.0" encoding="iso-8859-1"?>
<!-- Generator: Adobe Illustrator 28.5.0, SVG Export Plug-In . SVG Version: 9.03 Build 54727)  -->
<svg version="1.1" baseProfile="basic" id="Layer_1"
	 xmlns="http://www.w3.org/2000/svg" xmlns:xlink="http://www.w3.org/1999/xlink" x="0px" y="0px" viewBox="0 0 24 24"
	 xml:space="preserve">
<circle style="fill:none;stroke:#000000;stroke-width:1.5;stroke-linecap:round;stroke-linejoin:round;stroke-miterlimit:10;" cx="14.25" cy="12" r="3"/>
<path style="fill:none;stroke:#000000;stroke-width:1.5;stroke-linecap:round;stroke-linejoin:round;stroke-miterlimit:10;" d="
	M15.125,9h-6.25C7.149,9,5.75,7.601,5.75,5.875v0c0-1.726,1.399-3.125,3.125-3.125h6.25c1.726,0,3.125,1.399,3.125,3.125v0
	C18.25,7.601,16.851,9,15.125,9z"/>
<path style="fill:none;stroke:#000000;stroke-width:1.5;stroke-linecap:round;stroke-linejoin:round;stroke-miterlimit:10;" d="
	M11.25,9h-2.5c-1.657,0-3,1.343-3,3v0c0,1.657,1.343,3,3,3h2.5V9z"/>
<path style="fill:none;stroke:#000000;stroke-width:1.5;stroke-linecap:round;stroke-linejoin:round;stroke-miterlimit:10;" d="
	M11.25,15H8.875c-1.726,0-3.125,1.399-3.125,3.125v0c0,1.726,1.399,3.125,3.125,3.125h0c1.312,0,2.375-1.063,2.375-2.375V15z"/>
</svg>